<svg width="185" height="49" viewBox="0 0 185 49" fill="none" xmlns="http://www.w3.org/2000/svg">
<rect width="185" height="48.0791" rx="8" fill="#6CA89C"/>
<path fill-rule="evenodd" clip-rule="evenodd" d="M122.758 20.2863H125.716C125.716 20.6868 126.016 21.0723 126.534 21.2637C127.264 21.5336 128.153 21.3148 128.518 20.775L128.849 20.2863H140.334L140.665 20.775C141.03 21.3148 141.919 21.5336 142.649 21.2637C143.167 21.0723 143.467 20.6868 143.467 20.2863H146.425V22.4717H122.758V20.2863ZM142.162 18.1008H146.425C148.059 18.1008 149.384 19.0792 149.384 20.2862V22.4716C149.384 23.3895 148.618 24.1752 147.532 24.4989C147.537 24.5512 147.54 24.6039 147.54 24.6571C147.54 24.8166 147.516 24.9755 147.469 25.1312L145.168 32.7801C144.867 33.78 143.667 34.4915 142.28 34.4915H126.903C125.516 34.4915 124.316 33.78 124.015 32.7801L121.714 25.1312C121.65 24.9183 121.63 24.7057 121.65 24.4988C120.565 24.175 119.799 23.3894 119.799 22.4716V20.2862C119.799 19.0792 121.124 18.1008 122.758 18.1008H127.021L130.31 13.2414C130.675 12.7016 131.564 12.4829 132.294 12.7527C133.025 13.0226 133.321 13.679 132.956 14.2188L130.328 18.1008H138.855L136.227 14.2188C135.862 13.679 136.158 13.0226 136.889 12.7527C137.619 12.4829 138.508 12.7016 138.873 13.2414L142.162 18.1008ZM126.903 32.3061L124.602 24.6572H144.581L142.28 32.3061H126.903Z" fill="#FAFAFA"/>
<path d="M25.7955 17.7876C26.1578 17.8015 26.6316 17.8155 27.2169 17.8294C27.8022 17.8433 28.3875 17.8503 28.9729 17.8503C29.6418 17.8503 30.2898 17.8433 30.9169 17.8294C31.544 17.8155 31.99 17.8085 32.2548 17.8085C33.9828 17.8085 35.2719 18.1151 36.122 18.7283C36.986 19.3414 37.4181 20.1288 37.4181 21.0904C37.4181 21.5782 37.2717 22.0729 36.9791 22.5746C36.6864 23.0763 36.2335 23.5222 35.6203 23.9124C35.0071 24.3027 34.2128 24.5883 33.2373 24.7695V24.8113C34.5472 24.9089 35.5855 25.1458 36.3519 25.522C37.1184 25.8983 37.6689 26.3512 38.0034 26.8808C38.3378 27.4104 38.5051 27.9608 38.5051 28.5322C38.5051 29.4102 38.2751 30.1488 37.8152 30.748C37.3553 31.3473 36.6934 31.8072 35.8293 32.1277C34.9653 32.4343 33.9341 32.5876 32.7356 32.5876C32.4011 32.5876 31.9203 32.5806 31.2932 32.5667C30.6661 32.5388 29.9066 32.5249 29.0147 32.5249C28.4015 32.5249 27.8022 32.5318 27.2169 32.5458C26.6316 32.5458 26.1578 32.5597 25.7955 32.5876V32.1695C26.2414 32.1416 26.5759 32.0859 26.7988 32.0023C27.0218 31.9187 27.1681 31.7514 27.2378 31.5006C27.3214 31.2497 27.3632 30.8735 27.3632 30.3718V20.0034C27.3632 19.4878 27.3214 19.1115 27.2378 18.8746C27.1681 18.6237 27.0148 18.4565 26.7779 18.3729C26.555 18.2753 26.2275 18.2196 25.7955 18.2057V17.7876ZM31.983 18.2057C31.4395 18.2057 31.0842 18.3241 30.9169 18.561C30.7636 18.7979 30.687 19.2787 30.687 20.0034V30.3718C30.687 30.8595 30.7218 31.2288 30.7915 31.4797C30.8751 31.7305 31.0145 31.8978 31.2096 31.9814C31.4186 32.065 31.7252 32.1068 32.1293 32.1068C33.1327 32.1068 33.8644 31.7932 34.3243 31.1661C34.7981 30.5251 35.035 29.6192 35.035 28.4486C35.035 27.3755 34.7632 26.5463 34.2197 25.961C33.6902 25.3757 32.8052 25.0831 31.5649 25.0831H29.7881C29.7881 25.0831 29.7881 25.0273 29.7881 24.9158C29.7881 24.7904 29.7881 24.7277 29.7881 24.7277H31.5858C32.2408 24.7277 32.7425 24.5744 33.0909 24.2678C33.4393 23.9473 33.6832 23.5292 33.8226 23.0136C33.9619 22.484 34.0316 21.9196 34.0316 21.3204C34.0316 20.2891 33.8713 19.5156 33.5508 19C33.2303 18.4704 32.7077 18.2057 31.983 18.2057ZM50.4595 21.5503V30.3091C50.4595 30.9362 50.5571 31.403 50.7522 31.7096C50.9473 32.0023 51.2957 32.1486 51.7974 32.1486V32.5876C51.3653 32.5458 50.9333 32.5249 50.5013 32.5249C49.916 32.5249 49.3725 32.5458 48.8708 32.5876C48.3691 32.6294 47.8953 32.706 47.4493 32.8175V30.9362C47.1149 31.633 46.648 32.1347 46.0488 32.4413C45.4635 32.7339 44.8085 32.8802 44.0838 32.8802C43.4985 32.8802 43.0247 32.8036 42.6623 32.6503C42.3 32.497 42.0143 32.3019 41.8053 32.065C41.5684 31.8002 41.4011 31.4518 41.3036 31.0198C41.206 30.5878 41.1572 30.0303 41.1572 29.3475V24.0588C41.1572 23.4317 41.0597 22.9718 40.8646 22.6791C40.6834 22.3725 40.335 22.2192 39.8194 22.2192V21.7802C40.2653 21.822 40.6974 21.843 41.1154 21.843C41.7007 21.843 42.2443 21.822 42.7459 21.7802C43.2616 21.7245 43.7354 21.6478 44.1674 21.5503V30.2045C44.1674 30.5529 44.1953 30.8595 44.251 31.1243C44.3207 31.3891 44.4461 31.5981 44.6273 31.7514C44.8085 31.8908 45.0733 31.9605 45.4217 31.9605C45.7979 31.9605 46.1324 31.8559 46.425 31.6469C46.7316 31.4379 46.9755 31.1522 47.1567 30.7898C47.3518 30.4136 47.4493 29.9955 47.4493 29.5356V24.0588C47.4493 23.4317 47.3518 22.9718 47.1567 22.6791C46.9755 22.3725 46.6271 22.2192 46.1115 22.2192V21.7802C46.5574 21.822 46.9894 21.843 47.4075 21.843C47.9928 21.843 48.5363 21.822 49.038 21.7802C49.5537 21.7245 50.0275 21.6478 50.4595 21.5503ZM63.2849 21.7802V22.1983C63.0201 22.268 62.7693 22.4352 62.5324 22.7C62.2954 22.9509 62.0655 23.3829 61.8425 23.9961L58.8951 32.274L58.1216 33.7373L53.5646 23.3898C53.3276 22.8463 53.0907 22.5188 52.8538 22.4074C52.6308 22.2819 52.4357 22.2192 52.2685 22.2192V21.7802C52.7284 21.822 53.2022 21.8569 53.69 21.8848C54.1917 21.8987 54.6725 21.9057 55.1324 21.9057C55.7037 21.9057 56.2263 21.8917 56.7001 21.8639C57.174 21.836 57.6199 21.8081 58.038 21.7802V22.2192C57.7593 22.2192 57.4945 22.2401 57.2437 22.2819C57.0067 22.3098 56.8395 22.4074 56.742 22.5746C56.6583 22.7279 56.7001 22.9996 56.8674 23.3898L59.5013 29.7446L59.3131 29.8701L60.86 25.543C61.1248 24.7904 61.2363 24.1772 61.1945 23.7034C61.1527 23.2156 60.9994 22.8533 60.7346 22.6164C60.4698 22.3656 60.1075 22.2262 59.6476 22.1983V21.7802C59.8706 21.7942 60.1005 21.8081 60.3374 21.822C60.5743 21.822 60.8113 21.829 61.0482 21.843C61.2851 21.843 61.4941 21.843 61.6753 21.843C61.954 21.843 62.2467 21.836 62.5533 21.822C62.8598 21.8081 63.1037 21.7942 63.2849 21.7802ZM58.8951 32.274L58.1007 34.5107C57.9614 34.8591 57.815 35.1518 57.6617 35.3887C57.5224 35.6396 57.3621 35.8416 57.1809 35.9949C56.9858 36.1622 56.735 36.2876 56.4284 36.3712C56.1218 36.4688 55.7664 36.5175 55.3623 36.5175C55.0278 36.5175 54.6794 36.4618 54.3171 36.3503C53.9687 36.2388 53.676 36.0576 53.4391 35.8068C53.2022 35.5559 53.0838 35.2354 53.0838 34.8452C53.0838 34.4132 53.2371 34.0648 53.5437 33.8C53.8502 33.5492 54.2544 33.4237 54.7561 33.4237C55.216 33.4237 55.5922 33.5352 55.8849 33.7582C56.1776 33.9812 56.3239 34.3087 56.3239 34.7407C56.3239 35.0194 56.2333 35.2842 56.0521 35.535C55.8849 35.7859 55.6271 35.974 55.2787 36.0994C55.3484 36.1134 55.432 36.1204 55.5295 36.1204C55.6271 36.1204 55.7037 36.1204 55.7595 36.1204C56.1776 36.1204 56.5469 35.988 56.8674 35.7232C57.1879 35.4584 57.4527 35.0403 57.6617 34.4689L58.3934 32.3158L58.8951 32.274ZM83.0106 17.7876V18.2057C82.5646 18.2614 82.2301 18.3799 82.0072 18.561C81.7842 18.7283 81.6309 19 81.5473 19.3763C81.4776 19.7526 81.4428 20.2821 81.4428 20.965V32.6294C81.2755 32.6155 81.1013 32.6085 80.9202 32.6085C80.7529 32.6085 80.5718 32.6155 80.3767 32.6294L71.3043 21.1322V29.1593C71.3043 29.9258 71.3461 30.5181 71.4298 30.9362C71.5134 31.3403 71.6945 31.633 71.9733 31.8141C72.2659 31.9814 72.7188 32.0998 73.332 32.1695V32.5876C73.0672 32.5597 72.7188 32.5458 72.2868 32.5458C71.8548 32.5318 71.4507 32.5249 71.0744 32.5249C70.7539 32.5249 70.4264 32.5318 70.0919 32.5458C69.7574 32.5458 69.4787 32.5597 69.2558 32.5876V32.1695C69.7017 32.0998 70.0362 31.9814 70.2591 31.8141C70.4821 31.6469 70.6284 31.3752 70.6981 30.9989C70.7817 30.6087 70.8235 30.0791 70.8235 29.4102V20.0034C70.8235 19.4878 70.7817 19.1115 70.6981 18.8746C70.6284 18.6237 70.4751 18.4565 70.2382 18.3729C70.0153 18.2753 69.6878 18.2196 69.2558 18.2057V17.7876C69.4787 17.8015 69.7574 17.8155 70.0919 17.8294C70.4264 17.8433 70.7539 17.8503 71.0744 17.8503C71.4089 17.8503 71.7294 17.8433 72.036 17.8294C72.3426 17.8155 72.6213 17.8015 72.8721 17.7876L80.962 27.7588V21.2158C80.962 20.4494 80.9202 19.864 80.8365 19.4599C80.7529 19.0418 80.5648 18.7422 80.2721 18.561C79.9934 18.3799 79.5475 18.2614 78.9343 18.2057V17.7876C79.1991 17.8015 79.5475 17.8155 79.9795 17.8294C80.4115 17.8433 80.8156 17.8503 81.1919 17.8503C81.5264 17.8503 81.8539 17.8433 82.1744 17.8294C82.5089 17.8155 82.7876 17.8015 83.0106 17.7876ZM89.5148 21.4876C90.5321 21.4876 91.424 21.6757 92.1905 22.052C92.957 22.4283 93.5562 23.0345 93.9882 23.8706C94.4202 24.7068 94.6363 25.8147 94.6363 27.1944C94.6363 28.574 94.4202 29.6819 93.9882 30.5181C93.5562 31.3403 92.957 31.9396 92.1905 32.3158C91.424 32.6921 90.5321 32.8802 89.5148 32.8802C88.5253 32.8802 87.6404 32.6921 86.86 32.3158C86.0935 31.9396 85.4873 31.3403 85.0413 30.5181C84.6093 29.6819 84.3933 28.574 84.3933 27.1944C84.3933 25.8147 84.6093 24.7068 85.0413 23.8706C85.4873 23.0345 86.0935 22.4283 86.86 22.052C87.6404 21.6757 88.5253 21.4876 89.5148 21.4876ZM89.5148 21.9057C88.9573 21.9057 88.4905 22.3237 88.1142 23.1599C87.7379 23.9821 87.5498 25.3269 87.5498 27.1944C87.5498 29.0618 87.7379 30.4066 88.1142 31.2288C88.4905 32.0511 88.9573 32.4622 89.5148 32.4622C90.0862 32.4622 90.553 32.0511 90.9153 31.2288C91.2916 30.4066 91.4798 29.0618 91.4798 27.1944C91.4798 25.3269 91.2916 23.9821 90.9153 23.1599C90.553 22.3237 90.0862 21.9057 89.5148 21.9057ZM101.132 21.7802V22.2192C100.825 22.2192 100.553 22.2401 100.317 22.2819C100.094 22.3098 99.9403 22.4074 99.8567 22.5746C99.787 22.7418 99.8149 23.0136 99.9403 23.3898L101.926 29.5983L101.654 29.891L104.1 21.7593L104.518 21.9475L101.32 32.6294C101.097 32.6155 100.874 32.6085 100.651 32.6085C100.428 32.6085 100.198 32.6155 99.9612 32.6294L96.6584 23.3898C96.4633 22.8324 96.2473 22.4979 96.0104 22.3865C95.7874 22.275 95.5993 22.2192 95.446 22.2192V21.7802C95.8919 21.822 96.3518 21.8569 96.8256 21.8848C97.3134 21.8987 97.8429 21.9057 98.4143 21.9057C98.8463 21.9057 99.2993 21.8917 99.7731 21.8639C100.261 21.836 100.714 21.8081 101.132 21.7802ZM112.044 21.7802V22.1983C111.779 22.268 111.528 22.4283 111.291 22.6791C111.054 22.93 110.831 23.3689 110.622 23.9961L107.842 32.6294C107.619 32.6155 107.389 32.6085 107.152 32.6085C106.929 32.6085 106.706 32.6155 106.483 32.6294L103.536 24.5814L104.1 21.7593C104.351 21.7733 104.602 21.7802 104.853 21.7802C105.118 21.7663 105.375 21.7593 105.626 21.7593L108.49 30.2045L108.26 29.9746L109.661 25.543C109.898 24.7765 109.988 24.1563 109.932 23.6825C109.877 23.2087 109.709 22.8533 109.431 22.6164C109.152 22.3795 108.776 22.2401 108.302 22.1983V21.7802C108.525 21.7942 108.762 21.8081 109.013 21.822C109.277 21.822 109.535 21.829 109.786 21.843C110.051 21.843 110.274 21.843 110.455 21.843C110.734 21.843 111.019 21.836 111.312 21.822C111.619 21.8081 111.863 21.7942 112.044 21.7802Z" fill="#FAFAFA"/>
</svg>
