<svg width="48" height="48" viewBox="0 0 48 48" fill="none" xmlns="http://www.w3.org/2000/svg">
<rect width="48" height="48" rx="5" fill="#FCFDFD"/>
<g opacity="0.8">
<path fill-rule="evenodd" clip-rule="evenodd" d="M29.3264 14.0378C27.6329 14.0378 26.5413 14.233 25.2899 14.8258C24.8266 15.0452 24.3919 15.3095 23.9883 15.6179C23.6002 15.3268 23.1829 15.0747 22.7387 14.8621C21.4631 14.2515 20.3154 14.0378 18.6827 14.0378C14.3098 14.0378 11.1321 17.5441 11.1321 22.098C11.1321 25.5371 13.1135 28.8592 16.8043 32.0716C18.7416 33.7578 21.2151 35.4264 22.9865 36.3142L24 36.8221L25.0135 36.3142C26.7849 35.4264 29.2584 33.7578 31.1957 32.0716C34.8865 28.8592 36.8679 25.5371 36.8679 22.098C36.8679 17.5923 33.6602 14.0552 29.3264 14.0378ZM34.5283 22.098C34.5283 24.7923 32.8744 27.5653 29.6311 30.3882C27.8629 31.9272 25.5897 33.4652 24 34.2721C22.4102 33.4652 20.137 31.9272 18.3688 30.3882C15.1256 27.5653 13.4717 24.7923 13.4717 22.098C13.4717 18.7333 15.6752 16.3019 18.6826 16.3019C19.9808 16.3019 20.7808 16.4509 21.7014 16.8915C22.2453 17.1518 22.7259 17.4955 23.142 17.925L24.0027 18.8136L24.8556 17.918C25.281 17.4713 25.7687 17.1198 26.3184 16.8594C27.2121 16.436 27.9621 16.3019 29.3215 16.3019C32.2918 16.3138 34.5283 18.78 34.5283 22.098Z" fill="#283331"/>
</g>
</svg>
