<svg width="49" height="49" viewBox="0 0 49 49" fill="none" xmlns="http://www.w3.org/2000/svg">
<rect width="49" height="49" rx="5" fill="#6CA89C"/>
<path fill-rule="evenodd" clip-rule="evenodd" d="M16.0891 14.5032C15.8671 14.5027 15.6531 14.5278 15.4497 14.5756C15.1709 13.9612 14.8027 13.4099 14.3839 12.9911C13.673 12.2803 12.5519 12 11 12V14.5C11.9481 14.5 12.4936 14.6364 12.6161 14.7589C13.0886 15.2313 13.5 16.1913 13.5 17L13.5126 17.1768L14.7374 25.7506C12.6879 25.857 11.1002 27.4485 11.0015 29.4381L11 30.75C11.121 32.8049 12.7034 34.3857 14.679 34.498L14.9628 34.4984C15.4772 35.9557 16.8666 37 18.5 37C20.1328 37 21.5218 35.9565 22.0366 34.5H24.9634C25.4782 35.9565 26.8672 37 28.5 37C30.5711 37 32.25 35.3211 32.25 33.25C32.25 31.1789 30.5711 29.5 28.5 29.5C26.8672 29.5 25.4782 30.5435 24.9634 32H22.0366C21.5218 30.5435 20.1328 29.5 18.5 29.5C16.8672 29.5 15.4782 30.5435 14.9634 32H14.75C14.1125 31.9617 13.5407 31.3905 13.4978 30.6751L13.5 29.5C13.5337 28.8516 14.1016 28.2837 14.8119 28.2485L17.2796 28.2491L17.2975 28.25H29.8961L30.0806 28.1915C31.0283 27.8907 31.7871 27.177 32.1463 26.2532L32.278 25.9925L32.7058 25.1448C33.1485 24.2674 33.5911 23.3884 34.0225 22.5298C35.079 20.4263 35.7435 19.0896 35.8906 18.7613C36.6463 17.0756 35.1155 15.7781 33.5509 15.7504L16.0891 14.5032ZM29.462 25.75H17.3914C17.3111 25.7277 17.2499 25.6597 17.238 25.575L16.0131 17.0009L33.367 18.2437C33.0633 18.8629 32.5114 19.969 31.7887 21.4076L31.7706 21.4437C31.3581 22.2648 30.9161 23.1426 30.474 24.0188L30.0467 24.8654L29.8847 25.1861L29.8237 25.3278C29.7584 25.5097 29.6288 25.6592 29.462 25.75ZM28.5 34.5C29.1904 34.5 29.75 33.9404 29.75 33.25C29.75 32.5597 29.1904 32.0001 28.5 32.0001C27.8097 32.0001 27.25 32.5597 27.25 33.25C27.25 33.9404 27.8097 34.5 28.5 34.5ZM19.7499 33.25C19.7499 33.9404 19.1903 34.5 18.4999 34.5C17.8095 34.5 17.2499 33.9404 17.2499 33.25C17.2499 32.5597 17.8095 32.0001 18.4999 32.0001C19.1903 32.0001 19.7499 32.5597 19.7499 33.25Z" fill="#FAFAFA"/>
</svg>
